<svg width="48" height="48" viewBox="0 0 48 48" fill="none" xmlns="http://www.w3.org/2000/svg">
<path d="M22.2 42.3004V38.3504H18.2V35.0004H22.2V30.1504C19.4333 29.7171 17.1583 28.4421 15.375 26.3254C13.5916 24.2087 12.7 21.7671 12.7 19.0004C12.7 15.8337 13.8 13.1504 16 10.9504C18.2 8.75039 20.8666 7.65039 24 7.65039C27.1333 7.65039 29.8083 8.75039 32.025 10.9504C34.2416 13.1504 35.3499 15.8337 35.3499 19.0004C35.3499 21.7671 34.45 24.2087 32.65 26.3254C30.85 28.4421 28.5833 29.7171 25.85 30.1504V35.0004H29.85V38.3504H25.85V42.3004H22.2ZM24 26.6504C26.1 26.6504 27.9083 25.9087 29.4249 24.4254C30.9416 22.9421 31.7 21.1337 31.7 19.0004C31.7 16.9004 30.95 15.0921 29.45 13.5754C27.95 12.0587 26.1333 11.3004 24 11.3004C21.8666 11.3004 20.0583 12.0504 18.575 13.5504C17.0916 15.0504 16.35 16.8671 16.35 19.0004C16.35 21.1337 17.0916 22.9421 18.575 24.4254C20.0583 25.9087 21.8666 26.6504 24 26.6504Z" fill="#FAFAFA" fill-opacity="0.64"/>
</svg>
