<svg width="49" height="48" viewBox="0 0 49 48" fill="none" xmlns="http://www.w3.org/2000/svg">
<path d="M40.85 7.65039V19.3004H37.2V13.9004L28.75 22.3504C29.4167 23.3171 29.9333 24.3754 30.3 25.5254C30.6667 26.6754 30.85 27.8337 30.85 29.0004C30.85 32.1671 29.75 34.8421 27.55 37.0254C25.35 39.2087 22.6667 40.3004 19.5 40.3004C16.3333 40.3004 13.6583 39.2087 11.475 37.0254C9.29168 34.8421 8.20001 32.1671 8.20001 29.0004C8.20001 25.8337 9.29168 23.1504 11.475 20.9504C13.6583 18.7504 16.3333 17.6504 19.5 17.6504C20.7 17.6504 21.8583 17.8421 22.975 18.2254C24.0917 18.6087 25.15 19.1171 26.15 19.7504L34.6 11.3004H29.2V7.65039H40.85ZM19.5 21.3004C17.3667 21.3004 15.5583 22.0504 14.075 23.5504C12.5917 25.0504 11.85 26.8671 11.85 29.0004C11.85 31.1337 12.5917 32.9421 14.075 34.4254C15.5583 35.9087 17.3667 36.6504 19.5 36.6504C21.6 36.6504 23.4083 35.9087 24.925 34.4254C26.4417 32.9421 27.2 31.1337 27.2 29.0004C27.2 26.9004 26.45 25.0921 24.95 23.5754C23.45 22.0587 21.6333 21.3004 19.5 21.3004Z" fill="#FAFAFA" fill-opacity="0.64"/>
</svg>
